<?xml version="1.0" encoding="utf-8"?>
<!-- Generator: Adobe Illustrator 24.1.3, SVG Export Plug-In . SVG Version: 6.00 Build 0)  -->
<svg version="1.1" id="图层_1" xmlns="http://www.w3.org/2000/svg" xmlns:xlink="http://www.w3.org/1999/xlink" x="0px" y="0px"
	 viewBox="0 0 110 80" style="enable-background:new 0 0 110 80;" xml:space="preserve">
<style type="text/css">
	.st0{fill:#D20029;}
	.st1{fill:#FF0040;}
	.st2{fill:#831A2D;}
</style>
<g>
	<g>
		<g>
			<path class="st0" d="M55.6,79.1H1.7c-1.1,0-1.9-1-1.7-2l11.8-62.7c0.1-0.7,0.7-1.2,1.4-1.2H70l-12.1,64
				C57.7,78.3,56.7,79.1,55.6,79.1z"/>
			<path class="st1" d="M109,1.8c0.3-0.4,0-0.9-0.4-0.9H49c-0.8,0-1.5,0.6-1.6,1.3l-11.5,61l-0.4,1.9c0.3-0.6,0.9-1.4,2.2-1.4
				c0.3,0,0.2,0,0.2,0h58.9c0.5,0,0.9-0.5,0.7-1L85.8,33.3c-0.2-0.6-0.1-1.3,0.3-1.9L109,1.8z"/>
			<path class="st2" d="M58.6,73.8l1.9-10.1H37.6c-2.7,0-3.3,3.8-0.7,4.7l19.2,6.1c1.2,0.4,2,1.6,1.7,2.9L58.6,73.8z"/>
		</g>
	</g>
</g>
</svg>
